<svg preserveAspectRatio="none" overflow="visible" style="display: block;" width="24" height="18" viewBox="0 0 24 18" fill="none" xmlns="http://www.w3.org/2000/svg">
<g id="payment-icon_visa">
<rect width="24" height="18" fill="white"/>
<path id="Vector" d="M14.6781 5.60001C13.187 5.60001 11.8545 6.37286 11.8545 7.80077C11.8545 9.43832 14.2177 9.55142 14.2177 10.3741C14.2177 10.7205 13.8208 11.0305 13.1428 11.0305C12.1806 11.0305 11.4614 10.5973 11.4614 10.5973L11.1537 12.0382C11.1537 12.0382 11.9822 12.4042 13.0821 12.4042C14.7123 12.4042 15.9951 11.5934 15.9951 10.141C15.9951 8.41068 13.622 8.30093 13.622 7.53737C13.622 7.26603 13.9479 6.96872 14.6239 6.96872C15.3867 6.96872 16.009 7.28381 16.009 7.28381L16.3102 5.89213C16.3102 5.89213 15.633 5.60001 14.6781 5.60001V5.60001ZM1.03611 5.70504L1 5.9151C1 5.9151 1.6273 6.02991 2.19229 6.25892C2.91975 6.52153 2.97157 6.67441 3.09409 7.14924L4.42916 12.2958H6.21882L8.97593 5.70504H7.19037L5.41876 10.1862L4.69584 6.38775C4.62954 5.95303 4.29372 5.70504 3.88266 5.70504H1.03611V5.70504ZM9.69393 5.70504L8.29322 12.2958H9.9959L11.3917 5.70504H9.69393V5.70504ZM19.1904 5.70504C18.7798 5.70504 18.5623 5.92485 18.4026 6.30898L15.9081 12.2958H17.6937L18.0391 11.298H20.2144L20.4245 12.2958H22L20.6255 5.70504H19.1904V5.70504ZM19.4226 7.48567L19.9519 9.95887H18.5339L19.4226 7.48567V7.48567Z" fill="#1434CB"/>
</g>
</svg>
